<?xml version="1.0" encoding="utf-8"?>
<!-- Svg Vector Icons : http://www.sfont.cn -->
<!DOCTYPE svg PUBLIC "-//W3C//DTD SVG 1.1//EN" "http://www.w3.org/Graphics/SVG/1.1/DTD/svg11.dtd">
<svg version="1.1" xmlns="http://www.w3.org/2000/svg" xmlns:xlink="http://www.w3.org/1999/xlink" x="0px" y="0px" viewBox="0 0 1000 1000" enable-background="new 0 0 1000 1000" xml:space="preserve">
<metadata> Svg Vector Icons : http://www.sfont.cn </metadata>
<g><g transform="translate(0.000000,512.000000) scale(0.100000,-0.100000)"><path d="M5248.8,5007.7c-1077.6-55.5-1994.5-248.8-2612.7-551.3c-319.7-155-323.5-162.7-36.4-112.9C4171.2,4615.3,6064.2,4489,7249,4035.4c863.2-331.1,1349.4-807.7,1349.4-1324.5c0-86.1,7.7-139.7,21-139.7c9.6,0,141.7,40.2,290.9,88.1c323.5,103.3,727.3,296.7,880.5,417.3l109.1,88v214.4c0,210.5-1.9,216.3-76.6,371.3c-375.1,777.1-2002.1,1284.3-4057.8,1267.1C5539.8,5015.4,5306.2,5011.5,5248.8,5007.7z"/><path d="M3516.6,4138.7c-1450.9-78.5-2614.6-438.3-3141-970.4c-90-90-145.5-170.4-201-281.4c-72.7-153.1-74.6-160.8-74.6-365.6c0-245-1.9-241.2,243.1-398.1c578-371.3,1724.6-639.3,3077.8-721.6c472.8-28.7,1500.6-13.4,1942.8,28.7c1290.1,124.4,2329.4,417.3,2800.3,788.6l109.1,88v185.7c0,300.5-82.3,484.3-312,704.4C7254.8,3876.5,5499.6,4247.8,3516.6,4138.7z"/><path d="M9794.7,2720.4c-216.3-135.9-692.9-327.3-1066.1-426.8l-130.2-34.4v-809.6c0-446,3.8-811.6,9.6-811.6s141.7,44,302.4,95.7c344.5,112.9,706.3,287.1,870.9,415.4l116.8,91.9l1.9,771.4c0,423-1.9,769.5-3.8,769.5C9892.3,2781.7,9848.3,2752.9,9794.7,2720.4z"/><path d="M100,1147.1V373.8l116.8-88c890-669.9,3286.4-997.2,5462.7-748.4c581.9,67,1161.8,187.6,1617.4,338.8c394.3,128.2,803.9,338.8,934.1,478.5l42.1,47.9l-3.8,756.1l-5.7,756.1l-160.8-91.9c-1108.2-635.5-3541-901.5-5661.8-618.2c-958.9,128.2-1774.3,365.6-2249,658.4l-91.9,57.4V1147.1z"/><path d="M9833,798.7c-124.4-95.7-580-290.9-1018.3-436.4l-216.3-72.7v-792.4c0-648.9,3.8-792.4,24.9-792.4c47.9,0,446,132.1,637.4,212.5c220.1,89.9,444.1,216.3,558.9,313.9l80.4,70.8V65.6c0,419.2-5.7,763.7-13.4,763.7C9877,829.3,9854.1,814,9833,798.7z"/><path d="M103.8-799.6l5.7-771.4l114.8-93.8c300.5-243.1,957-482.4,1741.8-633.5c1094.8-212.5,2593.6-250.8,3809-97.6c1047,132.1,1931.3,403.9,2354.3,721.6l134,101.4l5.7,771.4c1.9,423,0,769.5-5.7,769.5c-3.8,0-51.7-24.9-101.4-57.4c-457.5-279.4-1270.9-526.4-2147.6-648.8c-490-68.9-932.1-99.5-1569.5-111C2856.2-876.1,1550.9-686.6,601.5-288.5c-185.7,78.5-268,118.7-440.2,222L100-28.2L103.8-799.6z"/><path d="M9322-1377.6l-570.4-268v-771.4c0-742.7-1.9-775.2-42.1-882.4c-21.1-61.3-53.6-130.2-68.9-153.1c-15.3-24.9-23-44-15.3-44c34.4,0,289,109.1,472.8,202.9c426.9,218.2,681.4,459.4,773.3,733.1c24.9,76.6,28.7,199.1,24.9,769.5l-5.7,681.4L9322-1377.6z"/><path d="M103.8-2688.7l5.7-702.5l65.1-134c204.8-419.2,832.6-773.3,1766.7-1003c1248-306.3,2861.5-333,4188-67c1081.4,214.4,1829.8,604.9,2061.4,1073.8l72.7,147.4l5.7,694.8c1.9,382.8,0,694.8-7.6,694.8c-5.8,0-63.2-30.6-124.4-68.9c-639.3-388.6-1644.2-633.6-3012.7-736.9c-375.2-28.7-1485.3-28.7-1885.4,0c-1313,93.8-2339,340.7-2972.5,717.8c-82.3,47.9-155,88-158.9,88C101.9-1984.4,101.9-2300.2,103.8-2688.7z"/></g></g>
</svg>